<svg width="334" height="215" viewBox="0 0 334 215" fill="none" xmlns="http://www.w3.org/2000/svg">
<g clip-path="url(#clip0)">
<path d="M99.366 177.024C98.2177 190.184 93.9954 202.224 89.4909 213.821C89.342 214.216 89.1888 214.605 89.0318 215H42.2153C41.2684 214.64 40.3338 214.246 39.4031 213.821C34.1153 211.466 29.1232 207.874 24.6209 203.184C7.39711 185.033 0.769413 150.735 3.763 120.002C5.62442 100.908 11.3535 81.4136 22.5096 71.13C28.4 65.6906 35.9663 63.9227 42.747 65.944C42.9245 65.9912 43.1017 66.0501 43.2829 66.1031C49.1168 68.0243 54.3141 72.7978 57.2715 80.4883C62.5896 94.3078 59.4229 111.428 56.8082 126.809C54.2014 142.19 52.7872 160.6 60.3536 171.944C57.8556 161.189 60.3214 148.36 66.2883 141.088C70.7966 135.601 77.0738 133.545 82.7989 135.248C83.3468 135.419 83.8868 135.613 84.4185 135.849C85.7039 136.399 86.9431 137.158 88.1131 138.112C97.0371 145.402 100.651 162.191 99.366 177.024Z" fill="#D2405A"/>
<path d="M71.6065 213.821C72.9038 214.263 74.2051 214.652 75.5145 215H68.4357C67.5089 214.635 66.5863 214.246 65.6719 213.821C63.6614 212.902 61.6818 211.847 59.7331 210.657C51.917 205.86 44.7172 198.658 39.2701 189.076C36.6061 184.433 34.4307 179.235 32.8157 173.654C31.0645 167.345 29.9516 160.696 29.5121 153.917C28.5249 140.009 29.5322 125.718 31.4137 112.058C33.3553 97.8998 36.4896 84.1483 40.7448 71.1182C41.2564 69.5565 41.7856 68.0047 42.3321 66.4626C42.3697 66.3357 42.4267 66.223 42.4986 66.1331C42.5705 66.0432 42.6555 65.9785 42.747 65.944C42.933 65.8913 43.1257 65.9485 43.2829 66.1031C43.4716 66.2615 43.6115 66.5197 43.6737 66.8246C43.736 67.1295 43.7158 67.4577 43.6174 67.7414C39.2301 80.2561 35.9044 93.5078 33.7142 107.202C31.5708 120.562 30.3541 134.541 30.769 148.278C31.1638 161.113 33.4565 173.736 38.6577 184.232C43.4078 193.814 49.9669 201.369 57.2231 206.514C61.8159 209.728 66.6405 212.179 71.6065 213.821Z" fill="#FFD60A" fill-opacity="0.53"/>
<path d="M87.1422 215H85.0551C84.8214 214.611 84.5958 214.216 84.3743 213.821C79.6205 205.373 76.4001 195.307 75.0109 184.556C73.3238 171.138 74.6362 157.283 78.7538 145.042C79.9025 141.61 81.2562 138.332 82.7988 135.248C83.3467 135.419 83.8867 135.613 84.4185 135.849C80.3607 143.713 77.6314 152.868 76.4532 162.568C75.4022 171.658 75.7517 180.976 77.4761 189.843C79.2006 198.71 82.2565 206.902 86.421 213.821C86.6545 214.216 86.8963 214.611 87.1422 215Z" fill="#FFD60A" fill-opacity="0.53"/>
<path d="M275.149 204.978C275.452 208.451 276.566 211.628 277.755 214.689C277.794 214.793 277.835 214.896 277.876 215H290.232C290.482 214.905 290.729 214.801 290.974 214.689C292.37 214.067 293.687 213.119 294.875 211.882C299.421 207.091 301.17 198.039 300.38 189.928C299.889 184.889 298.377 179.744 295.433 177.03C293.834 175.606 291.926 175.117 290.092 175.661C290.045 175.674 289.998 175.689 289.95 175.703C289.187 175.919 288.463 176.369 287.826 177.024C287.19 177.678 286.656 178.522 286.258 179.5C284.855 183.147 285.691 187.665 286.381 191.725C287.069 195.784 287.442 200.643 285.445 203.637C285.738 202.385 285.797 201.041 285.617 199.744C285.437 198.448 285.024 197.244 284.421 196.258C283.818 195.272 283.046 194.538 282.185 194.133C281.324 193.728 280.404 193.665 279.521 193.952C279.377 193.997 279.234 194.048 279.094 194.111C278.755 194.256 278.428 194.456 278.119 194.708C275.764 196.632 274.81 201.063 275.149 204.978Z" fill="#F2F2F2"/>
<path d="M282.475 214.689C282.133 214.806 281.789 214.908 281.444 215H283.312C283.557 214.904 283.8 214.801 284.041 214.689C284.572 214.446 285.094 214.168 285.609 213.854C287.695 212.615 289.547 210.662 291.009 208.158C291.712 206.933 292.286 205.561 292.713 204.088C293.175 202.423 293.469 200.668 293.585 198.879C293.797 195.181 293.627 191.457 293.083 187.832C292.57 184.095 291.743 180.466 290.62 177.027C290.485 176.615 290.345 176.205 290.201 175.798C290.191 175.765 290.176 175.735 290.157 175.711C290.138 175.688 290.116 175.671 290.092 175.661C290.043 175.648 289.992 175.663 289.95 175.703C289.9 175.745 289.863 175.813 289.847 175.894C289.831 175.974 289.836 176.061 289.862 176.136C291.02 179.439 291.898 182.936 292.476 186.55C293.071 190.095 293.332 193.742 293.253 197.391C293.21 200.784 292.486 204.084 291.171 206.88C289.892 209.398 288.209 211.417 286.271 212.76C285.059 213.609 283.786 214.256 282.475 214.689Z" fill="#FFD60A" fill-opacity="0.53"/>
<path d="M278.375 215H278.926C278.987 214.897 279.047 214.793 279.106 214.689C280.36 212.459 281.21 209.803 281.577 206.965C282.022 203.424 281.676 199.767 280.589 196.537C280.286 195.631 279.928 194.766 279.521 193.952C279.377 193.997 279.234 194.048 279.094 194.111C280.165 196.186 280.885 198.602 281.196 201.162C281.473 203.561 281.381 206.02 280.926 208.361C280.471 210.701 279.664 212.863 278.565 214.689C278.504 214.793 278.44 214.897 278.375 215Z" fill="#FFD60A" fill-opacity="0.53"/>
<path d="M163.781 125.235H125.111L124.701 107.844C124.683 107.09 124.777 106.339 124.977 105.644C125.176 104.948 125.476 104.324 125.857 103.814C126.237 103.305 126.688 102.922 127.179 102.692C127.67 102.462 128.19 102.39 128.702 102.482L151.205 106.512H151.208C154.544 106.525 157.741 108.472 160.097 111.926C162.454 115.381 163.779 120.06 163.781 124.94V125.235Z" fill="#FFD60A" fill-opacity="0.53"/>
<path d="M146.545 63.5455H119.575C119.216 63.5453 118.861 63.6486 118.529 63.8493C118.198 64.05 117.897 64.3443 117.643 64.7153C117.39 65.0862 117.188 65.5267 117.051 66.0115C116.914 66.4962 116.843 67.0158 116.844 67.5404V106.991C116.843 107.515 116.914 108.035 117.051 108.52C117.188 109.004 117.39 109.445 117.643 109.816C117.897 110.187 118.198 110.481 118.529 110.682C118.861 110.882 119.216 110.986 119.575 110.985H146.545C146.904 110.986 147.259 110.882 147.591 110.682C147.922 110.481 148.223 110.187 148.477 109.816C148.73 109.445 148.932 109.004 149.069 108.52C149.206 108.035 149.277 107.515 149.277 106.991V67.5404C149.277 67.0158 149.206 66.4962 149.069 66.0115C148.932 65.5267 148.73 65.0862 148.477 64.7152C148.223 64.3442 147.922 64.05 147.591 63.8493C147.259 63.6486 146.904 63.5453 146.545 63.5455Z" fill="#CCCCCC"/>
<path d="M140.471 93.0448L127.737 96.672C126.982 96.8859 126.199 96.6527 125.561 96.0238C124.923 95.3948 124.482 94.4213 124.334 93.317L123.355 85.9645C123.209 84.8597 123.368 83.7151 123.798 82.7819C124.228 81.8487 124.894 81.2032 125.649 80.9868L138.383 77.3596C139.138 77.1458 139.921 77.3789 140.559 78.0079C141.197 78.6368 141.638 79.6103 141.786 80.7147L142.765 88.0671C142.911 89.1719 142.752 90.3165 142.322 91.2497C141.892 92.1829 141.226 92.8284 140.471 93.0448Z" fill="#3F3D56"/>
<path d="M137.923 84.3586L128.205 87.1268C128.028 87.1774 127.843 87.1227 127.693 86.9746C127.543 86.8266 127.439 86.5973 127.405 86.3373C127.37 86.0773 127.407 85.8079 127.509 85.5882C127.61 85.3686 127.767 85.2167 127.944 85.1661L137.662 82.398C137.84 82.3473 138.024 82.4021 138.175 82.5501C138.325 82.6982 138.429 82.9274 138.463 83.1874C138.498 83.4474 138.46 83.7169 138.359 83.9365C138.258 84.1562 138.101 84.308 137.923 84.3586Z" fill="#FFD60A" fill-opacity="0.53"/>
<path d="M136.035 88.4579L131.008 89.8897C130.83 89.9403 130.646 89.8856 130.496 89.7375C130.346 89.5895 130.242 89.3603 130.207 89.1003C130.173 88.8403 130.21 88.5708 130.311 88.3512C130.412 88.1315 130.569 87.9797 130.747 87.929L135.773 86.4973C135.861 86.4722 135.952 86.4727 136.04 86.4988C136.128 86.5249 136.211 86.5761 136.286 86.6494C136.36 86.7227 136.424 86.8167 136.473 86.9261C136.523 87.0354 136.557 87.1579 136.574 87.2867C136.591 87.4154 136.591 87.5478 136.573 87.6764C136.555 87.8049 136.52 87.927 136.47 88.0358C136.42 88.1445 136.356 88.2378 136.281 88.3102C136.206 88.3827 136.123 88.4328 136.035 88.4579Z" fill="#FFD60A" fill-opacity="0.53"/>
<path d="M149.277 67.5404V72.7838H116.844V67.5404C116.843 67.0158 116.914 66.4962 117.051 66.0115C117.188 65.5267 117.39 65.0862 117.643 64.7153C117.897 64.3443 118.198 64.05 118.529 63.8493C118.861 63.6486 119.216 63.5453 119.575 63.5455H146.545C146.904 63.5453 147.259 63.6486 147.591 63.8493C147.922 64.05 148.223 64.3443 148.477 64.7153C148.73 65.0862 148.932 65.5267 149.069 66.0115C149.206 66.4962 149.277 67.0158 149.277 67.5404Z" fill="#B3B3B3"/>
<path d="M214.042 74.4258C213.855 73.5417 213.537 72.7284 213.112 72.0432C212.687 71.3581 212.164 70.8176 211.58 70.46C210.997 70.1024 210.367 69.9363 209.734 69.9734C209.102 70.0106 208.483 70.25 207.921 70.6749L170.816 51.2022L169.181 64.7608L206.169 79.6384C206.719 80.9723 207.585 81.9646 208.602 82.427C209.62 82.8895 210.718 82.79 211.688 82.1475C212.659 81.505 213.434 80.364 213.868 78.9409C214.302 77.5177 214.364 75.9112 214.042 74.4258Z" fill="#FFB8B8"/>
<path opacity="0.2" d="M214.042 74.4258C213.855 73.5417 213.537 72.7284 213.112 72.0432C212.687 71.3581 212.164 70.8176 211.58 70.46C210.997 70.1024 210.367 69.9363 209.734 69.9734C209.102 70.0106 208.483 70.25 207.921 70.6749L170.816 51.2022L169.181 64.7608L206.169 79.6384C206.719 80.9723 207.585 81.9646 208.602 82.427C209.62 82.8895 210.718 82.79 211.688 82.1475C212.659 81.505 213.434 80.364 213.868 78.9409C214.302 77.5177 214.364 75.9112 214.042 74.4258Z" fill="black"/>
<path d="M177.402 53.6729L173.898 67.0623C173.798 67.4433 173.643 67.7883 173.444 68.074C173.245 68.3596 173.006 68.5791 172.744 68.7176C172.482 68.8561 172.202 68.9102 171.924 68.8763C171.646 68.8425 171.377 68.7214 171.134 68.5213L162.618 61.5106C161.288 60.7534 160.218 59.2559 159.642 57.3465C159.067 55.4371 159.032 53.2715 159.546 51.3247C160.06 49.3778 161.08 47.8085 162.384 46.9607C163.688 46.1129 165.168 46.0559 166.501 46.8021L176.01 49.887C176.282 49.9755 176.538 50.1487 176.761 50.3949C176.983 50.6411 177.166 50.9546 177.299 51.3138C177.431 51.6731 177.508 52.0698 177.526 52.4769C177.544 52.884 177.501 53.2919 177.402 53.6729Z" fill="#FFD60A" fill-opacity="0.53"/>
<path d="M216.963 86.8235L203.667 95.6632L205.413 105.276C208.784 123.838 209.678 143.176 208.048 162.233L217.769 165.203L225.827 135.147L223.006 100.967L216.963 86.8235Z" fill="#FFD60A" fill-opacity="0.53"/>
<path d="M243.05 131.317C234.315 131.317 227.196 140.606 226.85 152.238H259.25C258.905 140.606 251.786 131.317 243.05 131.317Z" fill="#3F3D56"/>
<path d="M236.25 133.322C235.795 80.8143 215.351 85.6449 215.351 85.6449C215.351 85.6449 215.734 101.989 215.917 102.497C228.945 138.551 207.444 180.819 180.076 173.043C179.56 172.897 179.064 172.748 178.589 172.597C175.121 171.538 172.059 168.587 170.026 164.343C167.993 160.1 167.142 154.883 167.645 149.754C170.341 118.086 156.932 118.647 156.932 118.647H137.324L127.142 105.242C126.782 104.769 126.349 104.432 125.88 104.26C125.411 104.088 124.92 104.087 124.451 104.257C123.981 104.427 123.547 104.763 123.187 105.234C122.827 105.706 122.551 106.3 122.384 106.963L121.074 112.164C121.074 112.164 101.735 115.111 103.347 142.809H109.325C109.311 143.596 109.333 144.383 109.39 145.166L154.011 144.635C156.626 144.604 158.935 147.704 158.946 151.53C158.949 152.462 158.823 153.384 158.576 154.243C158.329 155.102 157.967 155.879 157.51 156.528C157.053 157.177 156.512 157.684 155.918 158.02C155.324 158.356 154.689 158.513 154.053 158.482L146.859 158.131C144.643 172.569 150.082 182.293 156.075 188.407C161.718 194.08 168.413 197.088 175.26 197.026H194.804C220.186 197.026 224.618 165.792 224.618 165.792C237.913 157.542 236.25 133.322 236.25 133.322Z" fill="#D2405A"/>
<path d="M241.842 214.116C254.358 214.116 264.505 199.275 264.505 180.967C264.505 162.659 254.358 147.818 241.842 147.818C229.325 147.818 219.179 162.659 219.179 180.967C219.179 199.275 229.325 214.116 241.842 214.116Z" fill="#3F3D56"/>
<path d="M241.842 189.092C244.909 189.092 247.396 185.454 247.396 180.967C247.396 176.48 244.909 172.842 241.842 172.842C238.774 172.842 236.287 176.48 236.287 180.967C236.287 185.454 238.774 189.092 241.842 189.092Z" fill="#FFD60A" fill-opacity="0.53"/>
<path d="M127.419 214.116C141.827 214.116 153.507 197.032 153.507 175.958C153.507 154.883 141.827 137.799 127.419 137.799C113.012 137.799 101.332 154.883 101.332 175.958C101.332 197.032 113.012 214.116 127.419 214.116Z" fill="#3F3D56"/>
<path d="M127.419 185.31C130.951 185.31 133.813 181.123 133.813 175.958C133.813 170.793 130.951 166.605 127.419 166.605C123.888 166.605 121.026 170.793 121.026 175.958C121.026 181.123 123.888 185.31 127.419 185.31Z" fill="#FFD60A" fill-opacity="0.53"/>
<path d="M203.705 98.2752L198.921 79.27C198.672 78.2795 198.559 77.2269 198.587 76.1722C198.616 75.1176 198.787 74.0815 199.089 73.1233C199.392 72.165 199.82 71.3034 200.351 70.5874C200.881 69.8715 201.502 69.3153 202.18 68.9506L215.894 61.5658C217.086 60.924 218.352 60.6318 219.621 60.7058C220.889 60.7798 222.136 61.2186 223.288 61.9972C224.441 62.7757 225.478 63.8788 226.339 65.2433C227.2 66.6079 227.869 68.2072 228.308 69.95C228.704 71.5143 228.906 73.169 228.905 74.8369C228.9 76.9547 228.572 79.0441 227.946 80.9535C227.319 82.8628 226.41 84.544 225.284 85.8748C224.47 86.8295 223.556 87.5837 222.576 88.1078L203.705 98.2752Z" fill="#3F3D56"/>
<path d="M228.703 74.8368C228.702 76.9114 228.383 78.9592 227.77 80.8297C227.156 82.7001 226.263 84.3455 225.158 85.6448C223.461 84.9903 221.883 83.8033 220.532 82.1662C219.181 80.5292 218.089 78.4814 217.334 76.1652C216.579 73.849 216.177 71.3199 216.158 68.7539C216.138 66.1878 216.501 63.6463 217.221 61.306C218.603 60.8665 220.034 60.8852 221.411 61.3608C222.787 61.8365 224.073 62.757 225.174 64.0547C226.276 65.3524 227.164 66.9945 227.775 68.8603C228.386 70.726 228.703 72.7682 228.703 74.8368Z" fill="#444029"/>
<path d="M106.771 146.639C109.886 146.639 112.412 142.154 112.412 136.621C112.412 131.088 109.886 126.602 106.771 126.602C103.656 126.602 101.131 131.088 101.131 136.621C101.131 142.154 103.656 146.639 106.771 146.639Z" fill="#FFD60A" fill-opacity="0.53"/>
<path d="M181.331 172.084H186.271L188.621 153.345L181.331 153.346L181.331 172.084Z" fill="#FFB8B8"/>
<path d="M180.071 169.725L189.799 169.724H189.799C190.613 169.724 191.419 169.959 192.171 170.414C192.924 170.87 193.607 171.538 194.183 172.38C194.758 173.222 195.215 174.221 195.526 175.322C195.838 176.422 195.998 177.601 195.998 178.792V179.086L180.072 179.087L180.071 169.725Z" fill="#2F2E41"/>
<path d="M187.065 164.393C187.007 164.393 186.949 164.389 186.891 164.381L180.056 163.653C179.779 163.615 179.512 163.485 179.276 163.273C179.039 163.061 178.839 162.772 178.69 162.428C178.542 162.085 178.45 161.697 178.42 161.293C178.391 160.889 178.425 160.481 178.521 160.099L187.669 130.036C187.735 129.768 187.761 129.483 187.748 129.199C187.734 128.915 187.681 128.638 187.59 128.386C187.5 128.131 187.374 127.907 187.221 127.728C187.067 127.549 186.889 127.42 186.699 127.349C182.398 125.704 171.36 121.325 161.806 116.2C157.713 114.005 155.134 110.832 154.143 106.77C152.837 101.415 154.77 96.5314 154.853 96.3265L154.917 96.166L163.908 97.3613L173.654 98.5739L195.013 115.327C196.803 116.742 198.162 119.092 198.821 121.908C199.479 124.724 199.388 127.8 198.566 130.522L188.719 162.821C188.577 163.289 188.345 163.686 188.051 163.965C187.757 164.244 187.415 164.392 187.065 164.393Z" fill="#2F2E41"/>
<path d="M165.471 37.882C170.936 37.882 175.367 31.4017 175.367 23.4078C175.367 15.4139 170.936 8.93356 165.471 8.93356C160.006 8.93356 155.576 15.4139 155.576 23.4078C155.576 31.4017 160.006 37.882 165.471 37.882Z" fill="#FFB8B8"/>
<path d="M178.511 173.851H183.451L185.801 155.113L178.51 155.114L178.511 173.851Z" fill="#FFB8B8"/>
<path d="M177.251 171.493L186.978 171.492H186.979C187.793 171.492 188.599 171.727 189.351 172.182C190.103 172.638 190.787 173.306 191.362 174.148C191.938 174.99 192.395 175.989 192.706 177.09C193.018 178.19 193.178 179.369 193.178 180.559V180.854L177.251 180.855L177.251 171.493Z" fill="#2F2E41"/>
<path d="M184.244 166.161C184.187 166.161 184.129 166.157 184.071 166.148L177.235 165.42C176.959 165.383 176.692 165.253 176.455 165.041C176.219 164.829 176.019 164.54 175.87 164.196C175.722 163.853 175.63 163.465 175.6 163.061C175.571 162.657 175.605 162.249 175.701 161.867L184.849 131.804C184.914 131.536 184.941 131.251 184.927 130.967C184.914 130.683 184.86 130.406 184.77 130.154C184.68 129.899 184.554 129.675 184.4 129.496C184.247 129.317 184.069 129.188 183.879 129.117C179.577 127.472 168.54 123.093 158.986 117.968C154.892 115.773 152.314 112.6 151.323 108.538C150.016 103.183 151.949 98.2994 152.032 98.0945L152.097 97.9339L161.088 99.1292L170.834 100.342L192.193 117.095C193.983 118.51 195.342 120.86 196.001 123.676C196.659 126.492 196.568 129.568 195.746 132.29L185.899 164.589C185.756 165.057 185.524 165.454 185.231 165.733C184.937 166.012 184.595 166.16 184.244 166.161Z" fill="#2F2E41"/>
<path d="M168.523 46.0895L158.048 40.7857C158.048 40.7857 151.472 48.1757 154.631 66.5085C156.28 75.9689 155.8 85.9551 153.261 94.9845C152.955 96.1016 152.603 97.1902 152.206 98.2441C152.206 98.2441 163.89 118.87 174.768 103.548L170.537 73.7874C170.537 73.7874 177.185 54.0453 168.523 46.0895Z" fill="#003566"/>
<path d="M166.7 38.3743C165.291 35.2908 164.18 31.0152 165.731 28.0813C167.261 25.1853 170.28 25.612 172.624 24.3305C175.889 22.5457 177.783 16.935 177.192 11.9103C176.602 6.88557 173.844 2.72023 170.559 1.01591C167.274 -0.688412 163.57 -0.134126 160.353 1.82851C156.392 4.24453 152.995 8.91816 151.571 14.8384C150.146 20.7587 150.908 27.8671 153.863 32.4175C157.031 37.2961 162.004 38.5963 166.604 38.5174" fill="#2F2E41"/>
<path d="M157.495 12.0715C155.72 14.1847 153.013 13.2461 151.108 11.3915C149.202 9.53693 147.657 6.89607 145.595 5.44198C141.962 2.87848 137.568 4.58262 134.032 7.42215C130.495 10.2617 127.36 14.1846 123.624 16.4129C119.889 18.6412 115.122 18.7513 112.293 14.5438C111.597 17.4938 111.54 20.6861 112.13 23.6852C112.72 26.6843 113.928 29.344 115.59 31.3015C117.252 33.2591 119.286 34.419 121.415 34.6232C123.544 34.8273 125.664 34.0657 127.486 32.4422C131.579 28.7953 133.84 21.1487 138.431 19.1358C140.972 18.022 143.7 18.9191 146.267 19.8908C148.835 20.8624 151.512 21.9124 154.103 21.0852C156.694 20.258 159.118 16.852 158.788 13.0028L157.495 12.0715Z" fill="#2F2E41"/>
<path d="M213.55 73.8362C213.289 72.9927 212.906 72.243 212.426 71.6398C211.946 71.0366 211.381 70.5947 210.772 70.3451C210.163 70.0956 209.524 70.0444 208.899 70.1954C208.275 70.3463 207.681 70.6957 207.159 71.2188L168.695 58.5914L168.217 72.3413L206.176 80.43C206.835 81.6544 207.778 82.4828 208.827 82.7581C209.875 83.0334 210.956 82.7366 211.865 81.9238C212.774 81.1111 213.448 79.8388 213.758 78.3483C214.069 76.8577 213.995 75.2523 213.55 73.8362Z" fill="#FFB8B8"/>
<path d="M175.439 59.8545L173.091 73.774C173.024 74.17 172.9 74.5404 172.726 74.8598C172.553 75.1792 172.334 75.4401 172.086 75.6249C171.837 75.8096 171.564 75.9138 171.286 75.9303C171.007 75.9469 170.729 75.8754 170.471 75.7207L161.429 70.3005C160.045 69.7901 158.856 68.4975 158.122 66.7061C157.389 64.9148 157.171 62.7711 157.517 60.7454C157.863 58.7197 158.745 56.9775 159.968 55.901C161.191 54.8246 162.656 54.5018 164.042 55.0036L173.738 56.3487C174.016 56.3873 174.285 56.513 174.526 56.7173C174.767 56.9215 174.976 57.1994 175.137 57.5321C175.299 57.8648 175.409 58.2444 175.461 58.6452C175.513 59.046 175.505 59.4584 175.439 59.8545V59.8545Z" fill="#D2405A"/>
<path d="M209.106 84.7609C210.664 84.7609 211.927 82.914 211.927 80.6357C211.927 78.3574 210.664 76.5105 209.106 76.5105C207.549 76.5105 206.286 78.3574 206.286 80.6357C206.286 82.914 207.549 84.7609 209.106 84.7609Z" fill="#FFD60A" fill-opacity="0.53"/>
<path d="M334 214.411C334 214.567 333.957 214.716 333.882 214.827C333.806 214.937 333.704 214.999 333.597 215H0.402895C0.296041 215 0.193562 214.938 0.118005 214.827C0.0424474 214.717 0 214.567 0 214.411C0 214.254 0.0424474 214.104 0.118005 213.994C0.193562 213.883 0.296041 213.821 0.402895 213.821H333.597C333.704 213.822 333.806 213.884 333.882 213.995C333.957 214.105 334 214.255 334 214.411Z" fill="#3F3D56"/>
</g>
<defs>
<clipPath id="clip0">
<rect width="334" height="215" fill="white"/>
</clipPath>
</defs>
</svg>
